<svg width="48" height="48" viewBox="0 0 48 48" fill="none" xmlns="http://www.w3.org/2000/svg">
<rect width="48" height="48" fill="#082038"/>
<path d="M10 17.5C11.8333 16.6667 16 14 18 10" stroke="#FFB700" stroke-width="0.75"/>
<path d="M10 30C11.8333 30.8333 16 33.5 18 37.5" stroke="#FFB700" stroke-width="0.75"/>
<path d="M38 17.5C36.1667 16.6667 32 14 30 10" stroke="#FFB700" stroke-width="0.75"/>
<path d="M38 30C36.1667 30.8333 32 33.5 30 37.5" stroke="#FFB700" stroke-width="0.75"/>
<path d="M23.4805 16.3447L23.5049 16.7188C21.6834 16.8331 19.9715 17.6314 18.7119 18.9521C17.4528 20.2727 16.738 22.0193 16.71 23.8438C16.6821 25.6684 17.3431 27.4373 18.5615 28.7959C19.6311 29.9882 21.0616 30.7873 22.624 31.0801V22.6201H23.374V38.0039H22.624V31.8398C20.8465 31.5389 19.2155 30.6475 18.0039 29.2969C16.6593 27.7977 15.9292 25.8456 15.96 23.832C15.9909 21.8187 16.7802 19.8908 18.1699 18.4336C19.5598 16.9764 21.4483 16.0968 23.458 15.9707L23.4805 16.3447ZM24.6602 15.8936C26.657 16.0189 28.509 16.7771 29.9072 18.2432C31.3145 19.7187 31.9676 21.8883 31.998 23.873C32.0288 25.8867 31.2988 27.8387 29.9541 29.3379C28.7516 30.6784 27.1361 31.5666 25.374 31.874V37.9951H24.624V16.6426C24.6203 16.6423 24.6161 16.6428 24.6123 16.6426L24.624 16.4629V15.9951H24.6543L24.6602 15.8936ZM25.374 31.1133C26.9208 30.8144 28.3361 30.0191 29.3965 28.8369C30.6149 27.4784 31.2749 25.7095 31.2471 23.8848C31.2186 22.0313 30.6063 20.0631 29.3643 18.7607C28.2887 17.6331 26.9062 16.9652 25.374 16.7266V31.1133Z" fill="white"/>
<circle cx="24" cy="24" r="2" fill="#FFB700"/>
</svg>
